<svg xmlns="http://www.w3.org/2000/svg" xmlns:xlink="http://www.w3.org/1999/xlink" width="500" zoomAndPan="magnify" viewBox="0 0 375 112.499997" height="150" preserveAspectRatio="xMidYMid meet" version="1.0"><defs><g/></defs><g fill="#1c2120" fill-opacity="1"><g transform="translate(137.415392, 66.454641)"><g><path d="M 25.625 -22.324219 L 36.476562 -22.324219 L 36.476562 2.128906 C 36.546875 4.878906 37.507812 9 40.941406 9 C 41.285156 9 47.191406 8.175781 47.675781 0.824219 C 46.644531 2.542969 45.132812 3.640625 43.964844 3.640625 C 41.972656 3.640625 41.835938 -0.34375 41.835938 -1.648438 L 41.835938 -38.261719 C 41.835938 -46.09375 38.8125 -52.484375 31.050781 -52.484375 C 23.355469 -52.484375 20.332031 -46.09375 20.332031 -38.261719 L 20.128906 -27.476562 L 15.457031 -27.476562 L 10.234375 -22.324219 L 20.128906 -22.324219 L 20.128906 -5.703125 C 20.128906 2.199219 19.648438 3.847656 11.953125 3.847656 C 10.371094 3.847656 7.144531 3.640625 6.59375 1.71875 C 6.113281 0.136719 7.007812 -1.03125 8.378906 -1.511719 C 7.695312 -1.71875 7.144531 -1.785156 6.59375 -1.785156 C 2.40625 -1.785156 1.375 3.023438 1.375 3.914062 C 1.375 8.378906 5.90625 9 9.410156 9 C 18.617188 9 25.625 0.207031 25.625 -8.65625 Z M 25.625 -38.261719 C 25.625 -42.179688 25.554688 -47.46875 31.050781 -47.46875 C 36.613281 -47.46875 36.476562 -42.179688 36.476562 -38.261719 L 36.476562 -27.476562 L 25.625 -27.476562 Z M 25.625 -38.261719 "/></g></g></g><g fill="#1c2120" fill-opacity="1"><g transform="translate(187.35643, 66.454641)"><g><path d="M 6.59375 -34.210938 C 6.59375 -40.597656 4.054688 -49.804688 -4.121094 -49.324219 C 1.578125 -46.917969 1.648438 -39.5 1.648438 -34.210938 L 1.648438 0 L 6.457031 -3.023438 Z M 6.59375 -34.210938 "/></g></g></g><g fill="#1c2120" fill-opacity="1"><g transform="translate(200.339726, 66.454641)"><g><path d="M 6.457031 -26.722656 L 1.648438 -23.699219 L 1.648438 0 L 6.457031 -3.023438 Z M 4.054688 -28.714844 L 7.761719 -32.425781 L 4.054688 -36.132812 L 0.34375 -32.425781 Z M 4.054688 -28.714844 "/></g></g></g><g fill="#1c2120" fill-opacity="1"><g transform="translate(213.460415, 66.454641)"><g><path d="M 26.171875 -26.722656 L 21.777344 -26.722656 C 21.089844 -26.378906 20.402344 -26.105469 19.578125 -26.105469 C 17.515625 -26.105469 15.457031 -26.722656 13.464844 -26.722656 C 10.785156 -26.722656 6.664062 -25.347656 7.074219 -20.609375 C 7.761719 -21.433594 8.449219 -21.777344 9.410156 -21.84375 C 11.746094 -22.050781 14.425781 -21.363281 16.761719 -21.363281 C 17.105469 -21.363281 17.515625 -21.363281 17.859375 -21.433594 L 0.6875 0 L 15.800781 0 C 19.507812 0 23.972656 -3.640625 22.324219 -7.761719 C 21.5 -6.386719 20.265625 -5.152344 18.546875 -5.015625 C 15.457031 -4.601562 12.160156 -4.878906 8.929688 -4.945312 Z M 26.171875 -26.722656 "/></g></g></g><g fill="#1c2120" fill-opacity="1"><g transform="translate(91.571217, 95.673231)"><g><path d="M 5.59375 0.21875 C 4.476562 0.21875 3.550781 -0.0234375 2.8125 -0.515625 C 2.070312 -1.003906 1.523438 -1.632812 1.171875 -2.40625 C 0.816406 -3.1875 0.640625 -4.007812 0.640625 -4.875 C 0.640625 -5.695312 0.820312 -6.5 1.1875 -7.28125 C 1.550781 -8.0625 2.097656 -8.703125 2.828125 -9.203125 C 3.554688 -9.710938 4.441406 -9.96875 5.484375 -9.96875 C 6.554688 -9.96875 7.460938 -9.710938 8.203125 -9.203125 C 8.953125 -8.703125 9.507812 -8.0625 9.875 -7.28125 C 10.25 -6.5 10.4375 -5.695312 10.4375 -4.875 C 10.4375 -4.050781 10.253906 -3.25 9.890625 -2.46875 C 9.523438 -1.6875 8.976562 -1.039062 8.25 -0.53125 C 7.519531 -0.03125 6.632812 0.21875 5.59375 0.21875 Z M 5.625 -0.34375 C 6.34375 -0.34375 6.957031 -0.550781 7.46875 -0.96875 C 7.988281 -1.382812 8.378906 -1.914062 8.640625 -2.5625 C 8.910156 -3.207031 9.046875 -3.890625 9.046875 -4.609375 C 9.046875 -5.398438 8.898438 -6.160156 8.609375 -6.890625 C 8.328125 -7.628906 7.910156 -8.234375 7.359375 -8.703125 C 6.816406 -9.171875 6.175781 -9.40625 5.4375 -9.40625 C 4.71875 -9.40625 4.097656 -9.195312 3.578125 -8.78125 C 3.054688 -8.375 2.660156 -7.835938 2.390625 -7.171875 C 2.128906 -6.515625 2 -5.832031 2 -5.125 C 2 -4.394531 2.132812 -3.660156 2.40625 -2.921875 C 2.675781 -2.179688 3.082031 -1.566406 3.625 -1.078125 C 4.175781 -0.585938 4.84375 -0.34375 5.625 -0.34375 Z M 5.625 -0.34375 "/></g></g></g><g fill="#1c2120" fill-opacity="1"><g transform="translate(105.405454, 95.673231)"><g><path d="M 0.609375 -0.421875 C 0.878906 -0.421875 1.070312 -0.488281 1.1875 -0.625 C 1.300781 -0.757812 1.367188 -0.925781 1.390625 -1.125 C 1.410156 -1.320312 1.425781 -1.648438 1.4375 -2.109375 L 1.453125 -5.296875 C 1.453125 -5.679688 1.46875 -5.976562 1.5 -6.1875 L 0.515625 -6.140625 L 0.515625 -6.71875 C 1.066406 -6.71875 1.441406 -6.75 1.640625 -6.8125 C 1.847656 -6.875 2.019531 -6.96875 2.15625 -7.09375 L 2.5625 -7.09375 C 2.582031 -6.914062 2.601562 -6.632812 2.625 -6.25 C 2.9375 -6.53125 3.289062 -6.753906 3.6875 -6.921875 C 4.09375 -7.097656 4.492188 -7.1875 4.890625 -7.1875 C 5.691406 -7.1875 6.28125 -6.929688 6.65625 -6.421875 C 7.03125 -5.921875 7.21875 -5.132812 7.21875 -4.0625 L 7.21875 -1.46875 C 7.21875 -1.050781 7.195312 -0.738281 7.15625 -0.53125 L 8.03125 -0.578125 L 8.03125 0 L 5.1875 0 L 5.1875 -0.421875 C 5.457031 -0.421875 5.648438 -0.488281 5.765625 -0.625 C 5.878906 -0.757812 5.945312 -0.929688 5.96875 -1.140625 C 6 -1.347656 6.015625 -1.671875 6.015625 -2.109375 L 6.015625 -4.0625 C 6.003906 -4.863281 5.875 -5.460938 5.625 -5.859375 C 5.375 -6.265625 4.976562 -6.46875 4.4375 -6.46875 C 4.101562 -6.46875 3.769531 -6.382812 3.4375 -6.21875 C 3.113281 -6.050781 2.84375 -5.832031 2.625 -5.5625 C 2.632812 -5.46875 2.640625 -5.289062 2.640625 -5.03125 L 2.625 -1.46875 C 2.625 -1.050781 2.609375 -0.738281 2.578125 -0.53125 L 3.453125 -0.578125 L 3.453125 0 L 0.609375 0 Z M 0.609375 -0.421875 "/></g></g></g><g fill="#1c2120" fill-opacity="1"><g transform="translate(116.637662, 95.673231)"><g><path d="M 3.984375 0.21875 C 3.335938 0.21875 2.753906 0.0664062 2.234375 -0.234375 C 1.722656 -0.535156 1.316406 -0.960938 1.015625 -1.515625 C 0.722656 -2.078125 0.578125 -2.726562 0.578125 -3.46875 C 0.578125 -4.113281 0.722656 -4.722656 1.015625 -5.296875 C 1.316406 -5.867188 1.734375 -6.328125 2.265625 -6.671875 C 2.804688 -7.015625 3.414062 -7.1875 4.09375 -7.1875 C 4.625 -7.1875 5.101562 -7.066406 5.53125 -6.828125 C 5.957031 -6.597656 6.296875 -6.253906 6.546875 -5.796875 C 6.796875 -5.335938 6.921875 -4.773438 6.921875 -4.109375 L 2.015625 -4.03125 C 2.003906 -2.914062 2.1875 -2.046875 2.5625 -1.421875 C 2.9375 -0.796875 3.519531 -0.484375 4.3125 -0.484375 C 4.738281 -0.484375 5.175781 -0.59375 5.625 -0.8125 C 6.082031 -1.039062 6.429688 -1.316406 6.671875 -1.640625 L 7 -1.359375 C 6.644531 -0.828125 6.1875 -0.429688 5.625 -0.171875 C 5.070312 0.0859375 4.523438 0.21875 3.984375 0.21875 Z M 5.609375 -4.609375 C 5.609375 -5.160156 5.484375 -5.632812 5.234375 -6.03125 C 4.984375 -6.4375 4.609375 -6.640625 4.109375 -6.640625 C 2.953125 -6.640625 2.269531 -5.960938 2.0625 -4.609375 Z M 5.609375 -4.609375 "/></g></g></g><g fill="#1c2120" fill-opacity="1"><g transform="translate(126.965423, 95.673231)"><g/></g></g><g fill="#1c2120" fill-opacity="1"><g transform="translate(133.411033, 95.673231)"><g><path d="M 4.03125 0.21875 C 3.59375 0.21875 3.148438 0.15625 2.703125 0.03125 C 2.265625 -0.0820312 1.878906 -0.253906 1.546875 -0.484375 L 1.609375 0.109375 L 0.890625 0.109375 L 0.8125 -2.859375 L 1.34375 -2.859375 C 1.394531 -2.054688 1.671875 -1.4375 2.171875 -1 C 2.671875 -0.570312 3.304688 -0.359375 4.078125 -0.359375 C 4.640625 -0.359375 5.113281 -0.515625 5.5 -0.828125 C 5.882812 -1.140625 6.078125 -1.566406 6.078125 -2.109375 C 6.078125 -2.503906 5.96875 -2.84375 5.75 -3.125 C 5.53125 -3.40625 5.257812 -3.640625 4.9375 -3.828125 C 4.625 -4.023438 4.191406 -4.25 3.640625 -4.5 C 3.023438 -4.789062 2.53125 -5.046875 2.15625 -5.265625 C 1.789062 -5.492188 1.476562 -5.789062 1.21875 -6.15625 C 0.957031 -6.519531 0.828125 -6.972656 0.828125 -7.515625 C 0.828125 -7.890625 0.910156 -8.257812 1.078125 -8.625 C 1.253906 -9 1.554688 -9.316406 1.984375 -9.578125 C 2.410156 -9.835938 2.96875 -9.96875 3.65625 -9.96875 C 4.070312 -9.96875 4.492188 -9.910156 4.921875 -9.796875 C 5.347656 -9.691406 5.734375 -9.515625 6.078125 -9.265625 L 6.03125 -9.859375 L 6.734375 -9.859375 L 6.734375 -6.796875 L 6.234375 -6.796875 C 6.191406 -7.523438 5.957031 -8.140625 5.53125 -8.640625 C 5.113281 -9.148438 4.523438 -9.40625 3.765625 -9.40625 C 3.203125 -9.40625 2.765625 -9.25 2.453125 -8.9375 C 2.140625 -8.632812 1.984375 -8.25 1.984375 -7.78125 C 1.984375 -7.40625 2.085938 -7.082031 2.296875 -6.8125 C 2.515625 -6.550781 2.773438 -6.332031 3.078125 -6.15625 C 3.378906 -5.976562 3.8125 -5.757812 4.375 -5.5 C 5 -5.207031 5.503906 -4.945312 5.890625 -4.71875 C 6.273438 -4.488281 6.601562 -4.1875 6.875 -3.8125 C 7.144531 -3.4375 7.28125 -2.972656 7.28125 -2.421875 C 7.28125 -1.898438 7.148438 -1.441406 6.890625 -1.046875 C 6.640625 -0.648438 6.269531 -0.335938 5.78125 -0.109375 C 5.289062 0.109375 4.707031 0.21875 4.03125 0.21875 Z M 4.03125 0.21875 "/></g></g></g><g fill="#1c2120" fill-opacity="1"><g transform="translate(144.086665, 95.673231)"><g><path d="M 3.234375 0.21875 C 1.960938 0.21875 1.332031 -0.632812 1.34375 -2.34375 L 1.359375 -6.375 L 0.296875 -6.359375 L 0.296875 -6.96875 C 0.734375 -6.96875 1.109375 -7.164062 1.421875 -7.5625 C 1.734375 -7.957031 1.960938 -8.40625 2.109375 -8.90625 L 2.59375 -8.90625 L 2.59375 -6.96875 L 4.921875 -6.96875 L 4.921875 -6.421875 L 2.59375 -6.390625 C 2.582031 -4.972656 2.570312 -3.988281 2.5625 -3.4375 C 2.5625 -2.894531 2.5625 -2.585938 2.5625 -2.515625 C 2.5625 -1.859375 2.640625 -1.367188 2.796875 -1.046875 C 2.953125 -0.734375 3.226562 -0.578125 3.625 -0.578125 C 3.863281 -0.578125 4.097656 -0.648438 4.328125 -0.796875 C 4.566406 -0.941406 4.773438 -1.144531 4.953125 -1.40625 L 5.328125 -1.09375 C 4.972656 -0.5625 4.617188 -0.207031 4.265625 -0.03125 C 3.910156 0.132812 3.566406 0.21875 3.234375 0.21875 Z M 3.234375 0.21875 "/></g></g></g><g fill="#1c2120" fill-opacity="1"><g transform="translate(152.257673, 95.673231)"><g><path d="M 4.0625 0.21875 C 3.425781 0.21875 2.835938 0.0664062 2.296875 -0.234375 C 1.765625 -0.535156 1.34375 -0.953125 1.03125 -1.484375 C 0.726562 -2.023438 0.578125 -2.632812 0.578125 -3.3125 C 0.578125 -4.039062 0.726562 -4.695312 1.03125 -5.28125 C 1.332031 -5.875 1.75 -6.335938 2.28125 -6.671875 C 2.820312 -7.015625 3.414062 -7.1875 4.0625 -7.1875 C 4.707031 -7.1875 5.296875 -7.03125 5.828125 -6.71875 C 6.367188 -6.40625 6.796875 -5.976562 7.109375 -5.4375 C 7.421875 -4.90625 7.578125 -4.304688 7.578125 -3.640625 C 7.578125 -2.941406 7.421875 -2.296875 7.109375 -1.703125 C 6.796875 -1.109375 6.375 -0.640625 5.84375 -0.296875 C 5.3125 0.046875 4.71875 0.21875 4.0625 0.21875 Z M 4.171875 -0.328125 C 4.847656 -0.328125 5.347656 -0.601562 5.671875 -1.15625 C 5.992188 -1.71875 6.15625 -2.414062 6.15625 -3.25 C 6.15625 -4.1875 5.976562 -4.988281 5.625 -5.65625 C 5.28125 -6.320312 4.757812 -6.65625 4.0625 -6.65625 C 3.375 -6.65625 2.851562 -6.367188 2.5 -5.796875 C 2.15625 -5.234375 1.984375 -4.539062 1.984375 -3.71875 C 1.984375 -3.125 2.066406 -2.566406 2.234375 -2.046875 C 2.398438 -1.535156 2.644531 -1.117188 2.96875 -0.796875 C 3.300781 -0.484375 3.703125 -0.328125 4.171875 -0.328125 Z M 4.171875 -0.328125 "/></g></g></g><g fill="#1c2120" fill-opacity="1"><g transform="translate(163.183768, 95.673231)"><g><path d="M 0.484375 3.125 C 0.753906 3.125 0.945312 3.054688 1.0625 2.921875 C 1.175781 2.796875 1.242188 2.628906 1.265625 2.421875 C 1.285156 2.222656 1.300781 1.894531 1.3125 1.4375 L 1.34375 -5.296875 C 1.34375 -5.679688 1.359375 -5.976562 1.390625 -6.1875 L 0.40625 -6.140625 L 0.40625 -6.71875 C 0.945312 -6.71875 1.320312 -6.75 1.53125 -6.8125 C 1.738281 -6.875 1.90625 -6.96875 2.03125 -7.09375 L 2.453125 -7.09375 C 2.484375 -6.644531 2.5 -6.394531 2.5 -6.34375 C 2.78125 -6.59375 3.113281 -6.796875 3.5 -6.953125 C 3.894531 -7.109375 4.28125 -7.1875 4.65625 -7.1875 C 5.207031 -7.1875 5.710938 -7.039062 6.171875 -6.75 C 6.640625 -6.46875 7.015625 -6.066406 7.296875 -5.546875 C 7.585938 -5.023438 7.734375 -4.421875 7.734375 -3.734375 C 7.734375 -2.960938 7.566406 -2.273438 7.234375 -1.671875 C 6.910156 -1.078125 6.476562 -0.613281 5.9375 -0.28125 C 5.394531 0.0507812 4.804688 0.21875 4.171875 0.21875 C 3.535156 0.21875 2.976562 0.0664062 2.5 -0.234375 L 2.5 2.078125 C 2.5 2.492188 2.484375 2.804688 2.453125 3.015625 L 3.328125 2.984375 L 3.328125 3.546875 L 0.484375 3.546875 Z M 4.15625 -0.328125 C 4.582031 -0.328125 4.957031 -0.460938 5.28125 -0.734375 C 5.601562 -1.003906 5.851562 -1.378906 6.03125 -1.859375 C 6.207031 -2.347656 6.296875 -2.898438 6.296875 -3.515625 C 6.296875 -4.347656 6.113281 -5.050781 5.75 -5.625 C 5.394531 -6.207031 4.863281 -6.5 4.15625 -6.5 C 3.851562 -6.5 3.554688 -6.425781 3.265625 -6.28125 C 2.984375 -6.132812 2.734375 -5.945312 2.515625 -5.71875 C 2.523438 -5.65625 2.53125 -5.375 2.53125 -4.875 L 2.515625 -0.875 C 2.992188 -0.507812 3.539062 -0.328125 4.15625 -0.328125 Z M 4.15625 -0.328125 "/></g></g></g><g fill="#1c2120" fill-opacity="1"><g transform="translate(174.276833, 95.673231)"><g/></g></g><g fill="#1c2120" fill-opacity="1"><g transform="translate(180.722443, 95.673231)"><g><path d="M 0.765625 -0.453125 C 1.085938 -0.460938 1.316406 -0.535156 1.453125 -0.671875 C 1.597656 -0.816406 1.675781 -0.984375 1.6875 -1.171875 C 1.707031 -1.367188 1.71875 -1.703125 1.71875 -2.171875 L 1.71875 -8.1875 C 1.71875 -8.570312 1.734375 -8.90625 1.765625 -9.1875 L 0.765625 -9.140625 L 0.765625 -9.75 L 4.046875 -9.765625 C 5.796875 -9.765625 7.179688 -9.351562 8.203125 -8.53125 C 9.222656 -7.707031 9.734375 -6.484375 9.734375 -4.859375 C 9.734375 -3.984375 9.523438 -3.175781 9.109375 -2.4375 C 8.703125 -1.695312 8.097656 -1.101562 7.296875 -0.65625 C 6.503906 -0.21875 5.546875 0 4.421875 0 L 0.765625 0 Z M 4.390625 -0.53125 C 5.171875 -0.53125 5.859375 -0.71875 6.453125 -1.09375 C 7.054688 -1.476562 7.523438 -2.003906 7.859375 -2.671875 C 8.191406 -3.335938 8.359375 -4.085938 8.359375 -4.921875 C 8.359375 -6.273438 7.988281 -7.332031 7.25 -8.09375 C 6.507812 -8.863281 5.390625 -9.25 3.890625 -9.25 C 3.566406 -9.25 3.335938 -9.179688 3.203125 -9.046875 C 3.066406 -8.921875 2.988281 -8.757812 2.96875 -8.5625 C 2.945312 -8.375 2.9375 -8.046875 2.9375 -7.578125 L 2.9375 -1.640625 C 2.9375 -1.160156 2.921875 -0.800781 2.890625 -0.5625 C 3.222656 -0.539062 3.722656 -0.53125 4.390625 -0.53125 Z M 4.390625 -0.53125 "/></g></g></g><g fill="#1c2120" fill-opacity="1"><g transform="translate(193.87486, 95.673231)"><g><path d="M 3.984375 0.21875 C 3.335938 0.21875 2.753906 0.0664062 2.234375 -0.234375 C 1.722656 -0.535156 1.316406 -0.960938 1.015625 -1.515625 C 0.722656 -2.078125 0.578125 -2.726562 0.578125 -3.46875 C 0.578125 -4.113281 0.722656 -4.722656 1.015625 -5.296875 C 1.316406 -5.867188 1.734375 -6.328125 2.265625 -6.671875 C 2.804688 -7.015625 3.414062 -7.1875 4.09375 -7.1875 C 4.625 -7.1875 5.101562 -7.066406 5.53125 -6.828125 C 5.957031 -6.597656 6.296875 -6.253906 6.546875 -5.796875 C 6.796875 -5.335938 6.921875 -4.773438 6.921875 -4.109375 L 2.015625 -4.03125 C 2.003906 -2.914062 2.1875 -2.046875 2.5625 -1.421875 C 2.9375 -0.796875 3.519531 -0.484375 4.3125 -0.484375 C 4.738281 -0.484375 5.175781 -0.59375 5.625 -0.8125 C 6.082031 -1.039062 6.429688 -1.316406 6.671875 -1.640625 L 7 -1.359375 C 6.644531 -0.828125 6.1875 -0.429688 5.625 -0.171875 C 5.070312 0.0859375 4.523438 0.21875 3.984375 0.21875 Z M 5.609375 -4.609375 C 5.609375 -5.160156 5.484375 -5.632812 5.234375 -6.03125 C 4.984375 -6.4375 4.609375 -6.640625 4.109375 -6.640625 C 2.953125 -6.640625 2.269531 -5.960938 2.0625 -4.609375 Z M 5.609375 -4.609375 "/></g></g></g><g fill="#1c2120" fill-opacity="1"><g transform="translate(204.202625, 95.673231)"><g><path d="M 3.46875 0.21875 C 3.03125 0.21875 2.628906 0.160156 2.265625 0.046875 C 1.898438 -0.0664062 1.59375 -0.210938 1.34375 -0.390625 L 1.390625 0.09375 L 0.8125 0.09375 L 0.71875 -2.296875 L 1.15625 -2.296875 C 1.175781 -1.910156 1.28125 -1.566406 1.46875 -1.265625 C 1.65625 -0.972656 1.90625 -0.738281 2.21875 -0.5625 C 2.53125 -0.394531 2.863281 -0.3125 3.21875 -0.3125 C 3.613281 -0.3125 3.96875 -0.40625 4.28125 -0.59375 C 4.59375 -0.789062 4.75 -1.066406 4.75 -1.421875 C 4.75 -1.679688 4.671875 -1.898438 4.515625 -2.078125 C 4.359375 -2.253906 4.164062 -2.398438 3.9375 -2.515625 C 3.71875 -2.628906 3.40625 -2.765625 3 -2.921875 C 2.5 -3.109375 2.097656 -3.28125 1.796875 -3.4375 C 1.503906 -3.601562 1.25 -3.828125 1.03125 -4.109375 C 0.820312 -4.390625 0.71875 -4.742188 0.71875 -5.171875 C 0.71875 -5.472656 0.789062 -5.773438 0.9375 -6.078125 C 1.09375 -6.390625 1.347656 -6.648438 1.703125 -6.859375 C 2.054688 -7.078125 2.523438 -7.1875 3.109375 -7.1875 C 3.390625 -7.1875 3.679688 -7.140625 3.984375 -7.046875 C 4.285156 -6.953125 4.566406 -6.796875 4.828125 -6.578125 L 4.796875 -7.109375 L 5.390625 -7.109375 L 5.390625 -4.671875 L 4.9375 -4.671875 C 4.914062 -5.210938 4.753906 -5.679688 4.453125 -6.078125 C 4.148438 -6.472656 3.722656 -6.671875 3.171875 -6.671875 C 2.753906 -6.671875 2.421875 -6.566406 2.171875 -6.359375 C 1.929688 -6.148438 1.8125 -5.898438 1.8125 -5.609375 C 1.8125 -5.335938 1.890625 -5.109375 2.046875 -4.921875 C 2.210938 -4.742188 2.414062 -4.585938 2.65625 -4.453125 C 2.894531 -4.328125 3.222656 -4.1875 3.640625 -4.03125 C 4.117188 -3.832031 4.503906 -3.648438 4.796875 -3.484375 C 5.097656 -3.316406 5.351562 -3.09375 5.5625 -2.8125 C 5.769531 -2.539062 5.875 -2.210938 5.875 -1.828125 C 5.875 -1.378906 5.757812 -1 5.53125 -0.6875 C 5.300781 -0.382812 5.003906 -0.15625 4.640625 0 C 4.273438 0.144531 3.882812 0.21875 3.46875 0.21875 Z M 3.46875 0.21875 "/></g></g></g><g fill="#1c2120" fill-opacity="1"><g transform="translate(213.431141, 95.673231)"><g><path d="M 3.234375 0.21875 C 1.960938 0.21875 1.332031 -0.632812 1.34375 -2.34375 L 1.359375 -6.375 L 0.296875 -6.359375 L 0.296875 -6.96875 C 0.734375 -6.96875 1.109375 -7.164062 1.421875 -7.5625 C 1.734375 -7.957031 1.960938 -8.40625 2.109375 -8.90625 L 2.59375 -8.90625 L 2.59375 -6.96875 L 4.921875 -6.96875 L 4.921875 -6.421875 L 2.59375 -6.390625 C 2.582031 -4.972656 2.570312 -3.988281 2.5625 -3.4375 C 2.5625 -2.894531 2.5625 -2.585938 2.5625 -2.515625 C 2.5625 -1.859375 2.640625 -1.367188 2.796875 -1.046875 C 2.953125 -0.734375 3.226562 -0.578125 3.625 -0.578125 C 3.863281 -0.578125 4.097656 -0.648438 4.328125 -0.796875 C 4.566406 -0.941406 4.773438 -1.144531 4.953125 -1.40625 L 5.328125 -1.09375 C 4.972656 -0.5625 4.617188 -0.207031 4.265625 -0.03125 C 3.910156 0.132812 3.566406 0.21875 3.234375 0.21875 Z M 3.234375 0.21875 "/></g></g></g><g fill="#1c2120" fill-opacity="1"><g transform="translate(221.602143, 95.673231)"><g><path d="M 1.984375 -8.484375 C 1.796875 -8.484375 1.625 -8.5625 1.46875 -8.71875 C 1.320312 -8.882812 1.25 -9.078125 1.25 -9.296875 C 1.25 -9.523438 1.328125 -9.722656 1.484375 -9.890625 C 1.640625 -10.054688 1.8125 -10.140625 2 -10.140625 C 2.21875 -10.140625 2.394531 -10.054688 2.53125 -9.890625 C 2.675781 -9.722656 2.75 -9.523438 2.75 -9.296875 C 2.75 -9.078125 2.671875 -8.882812 2.515625 -8.71875 C 2.367188 -8.5625 2.191406 -8.484375 1.984375 -8.484375 Z M 0.609375 -0.421875 C 0.878906 -0.421875 1.070312 -0.488281 1.1875 -0.625 C 1.300781 -0.757812 1.367188 -0.929688 1.390625 -1.140625 C 1.421875 -1.347656 1.4375 -1.671875 1.4375 -2.109375 L 1.4375 -5.296875 C 1.4375 -5.554688 1.453125 -5.851562 1.484375 -6.1875 L 0.5 -6.140625 L 0.5 -6.71875 C 1.050781 -6.71875 1.441406 -6.75 1.671875 -6.8125 C 1.910156 -6.882812 2.097656 -6.976562 2.234375 -7.09375 L 2.625 -7.09375 L 2.625 -1.46875 C 2.625 -1.050781 2.609375 -0.738281 2.578125 -0.53125 L 3.453125 -0.578125 L 3.453125 0 L 0.609375 0 Z M 0.609375 -0.421875 "/></g></g></g><g fill="#1c2120" fill-opacity="1"><g transform="translate(228.298209, 95.673231)"><g><path d="M 0.609375 -0.421875 C 0.878906 -0.421875 1.070312 -0.488281 1.1875 -0.625 C 1.300781 -0.757812 1.367188 -0.925781 1.390625 -1.125 C 1.410156 -1.320312 1.425781 -1.648438 1.4375 -2.109375 L 1.453125 -5.296875 C 1.453125 -5.679688 1.46875 -5.976562 1.5 -6.1875 L 0.515625 -6.140625 L 0.515625 -6.71875 C 1.066406 -6.71875 1.441406 -6.75 1.640625 -6.8125 C 1.847656 -6.875 2.019531 -6.96875 2.15625 -7.09375 L 2.5625 -7.09375 C 2.582031 -6.914062 2.601562 -6.632812 2.625 -6.25 C 2.9375 -6.53125 3.289062 -6.753906 3.6875 -6.921875 C 4.09375 -7.097656 4.492188 -7.1875 4.890625 -7.1875 C 5.691406 -7.1875 6.28125 -6.929688 6.65625 -6.421875 C 7.03125 -5.921875 7.21875 -5.132812 7.21875 -4.0625 L 7.21875 -1.46875 C 7.21875 -1.050781 7.195312 -0.738281 7.15625 -0.53125 L 8.03125 -0.578125 L 8.03125 0 L 5.1875 0 L 5.1875 -0.421875 C 5.457031 -0.421875 5.648438 -0.488281 5.765625 -0.625 C 5.878906 -0.757812 5.945312 -0.929688 5.96875 -1.140625 C 6 -1.347656 6.015625 -1.671875 6.015625 -2.109375 L 6.015625 -4.0625 C 6.003906 -4.863281 5.875 -5.460938 5.625 -5.859375 C 5.375 -6.265625 4.976562 -6.46875 4.4375 -6.46875 C 4.101562 -6.46875 3.769531 -6.382812 3.4375 -6.21875 C 3.113281 -6.050781 2.84375 -5.832031 2.625 -5.5625 C 2.632812 -5.46875 2.640625 -5.289062 2.640625 -5.03125 L 2.625 -1.46875 C 2.625 -1.050781 2.609375 -0.738281 2.578125 -0.53125 L 3.453125 -0.578125 L 3.453125 0 L 0.609375 0 Z M 0.609375 -0.421875 "/></g></g></g><g fill="#1c2120" fill-opacity="1"><g transform="translate(239.530412, 95.673231)"><g><path d="M 2.5625 0.21875 C 1.882812 0.21875 1.363281 0.0664062 1 -0.234375 C 0.644531 -0.546875 0.46875 -0.945312 0.46875 -1.4375 C 0.46875 -1.96875 0.679688 -2.421875 1.109375 -2.796875 C 1.546875 -3.171875 2.09375 -3.445312 2.75 -3.625 C 3.40625 -3.800781 4.0625 -3.890625 4.71875 -3.890625 L 4.71875 -4.75 C 4.71875 -5.351562 4.628906 -5.820312 4.453125 -6.15625 C 4.273438 -6.5 3.898438 -6.671875 3.328125 -6.671875 C 3.035156 -6.671875 2.757812 -6.609375 2.5 -6.484375 C 2.238281 -6.367188 2.050781 -6.1875 1.9375 -5.9375 C 2.050781 -5.8125 2.109375 -5.640625 2.109375 -5.421875 C 2.109375 -5.273438 2.054688 -5.140625 1.953125 -5.015625 C 1.859375 -4.890625 1.710938 -4.828125 1.515625 -4.828125 C 1.316406 -4.828125 1.160156 -4.890625 1.046875 -5.015625 C 0.941406 -5.140625 0.890625 -5.304688 0.890625 -5.515625 C 0.890625 -5.816406 1.003906 -6.09375 1.234375 -6.34375 C 1.472656 -6.601562 1.804688 -6.804688 2.234375 -6.953125 C 2.660156 -7.109375 3.128906 -7.1875 3.640625 -7.1875 C 4.421875 -7.1875 5 -6.976562 5.375 -6.5625 C 5.75 -6.144531 5.929688 -5.492188 5.921875 -4.609375 L 5.90625 -1.46875 C 5.90625 -1.175781 5.882812 -0.863281 5.84375 -0.53125 L 6.828125 -0.578125 L 6.828125 0 L 4.84375 0 C 4.8125 -0.132812 4.78125 -0.398438 4.75 -0.796875 C 4.070312 -0.117188 3.34375 0.21875 2.5625 0.21875 Z M 2.875 -0.578125 C 3.226562 -0.578125 3.550781 -0.640625 3.84375 -0.765625 C 4.132812 -0.898438 4.425781 -1.109375 4.71875 -1.390625 C 4.707031 -1.523438 4.703125 -1.765625 4.703125 -2.109375 L 4.71875 -3.40625 C 3.957031 -3.382812 3.28125 -3.226562 2.6875 -2.9375 C 2.09375 -2.65625 1.796875 -2.222656 1.796875 -1.640625 C 1.796875 -1.296875 1.894531 -1.03125 2.09375 -0.84375 C 2.300781 -0.664062 2.5625 -0.578125 2.875 -0.578125 Z M 2.875 -0.578125 "/></g></g></g><g fill="#1c2120" fill-opacity="1"><g transform="translate(249.49639, 95.673231)"><g><path d="M 3.234375 0.21875 C 1.960938 0.21875 1.332031 -0.632812 1.34375 -2.34375 L 1.359375 -6.375 L 0.296875 -6.359375 L 0.296875 -6.96875 C 0.734375 -6.96875 1.109375 -7.164062 1.421875 -7.5625 C 1.734375 -7.957031 1.960938 -8.40625 2.109375 -8.90625 L 2.59375 -8.90625 L 2.59375 -6.96875 L 4.921875 -6.96875 L 4.921875 -6.421875 L 2.59375 -6.390625 C 2.582031 -4.972656 2.570312 -3.988281 2.5625 -3.4375 C 2.5625 -2.894531 2.5625 -2.585938 2.5625 -2.515625 C 2.5625 -1.859375 2.640625 -1.367188 2.796875 -1.046875 C 2.953125 -0.734375 3.226562 -0.578125 3.625 -0.578125 C 3.863281 -0.578125 4.097656 -0.648438 4.328125 -0.796875 C 4.566406 -0.941406 4.773438 -1.144531 4.953125 -1.40625 L 5.328125 -1.09375 C 4.972656 -0.5625 4.617188 -0.207031 4.265625 -0.03125 C 3.910156 0.132812 3.566406 0.21875 3.234375 0.21875 Z M 3.234375 0.21875 "/></g></g></g><g fill="#1c2120" fill-opacity="1"><g transform="translate(257.667392, 95.673231)"><g><path d="M 1.984375 -8.484375 C 1.796875 -8.484375 1.625 -8.5625 1.46875 -8.71875 C 1.320312 -8.882812 1.25 -9.078125 1.25 -9.296875 C 1.25 -9.523438 1.328125 -9.722656 1.484375 -9.890625 C 1.640625 -10.054688 1.8125 -10.140625 2 -10.140625 C 2.21875 -10.140625 2.394531 -10.054688 2.53125 -9.890625 C 2.675781 -9.722656 2.75 -9.523438 2.75 -9.296875 C 2.75 -9.078125 2.671875 -8.882812 2.515625 -8.71875 C 2.367188 -8.5625 2.191406 -8.484375 1.984375 -8.484375 Z M 0.609375 -0.421875 C 0.878906 -0.421875 1.070312 -0.488281 1.1875 -0.625 C 1.300781 -0.757812 1.367188 -0.929688 1.390625 -1.140625 C 1.421875 -1.347656 1.4375 -1.671875 1.4375 -2.109375 L 1.4375 -5.296875 C 1.4375 -5.554688 1.453125 -5.851562 1.484375 -6.1875 L 0.5 -6.140625 L 0.5 -6.71875 C 1.050781 -6.71875 1.441406 -6.75 1.671875 -6.8125 C 1.910156 -6.882812 2.097656 -6.976562 2.234375 -7.09375 L 2.625 -7.09375 L 2.625 -1.46875 C 2.625 -1.050781 2.609375 -0.738281 2.578125 -0.53125 L 3.453125 -0.578125 L 3.453125 0 L 0.609375 0 Z M 0.609375 -0.421875 "/></g></g></g><g fill="#1c2120" fill-opacity="1"><g transform="translate(264.363458, 95.673231)"><g><path d="M 4.0625 0.21875 C 3.425781 0.21875 2.835938 0.0664062 2.296875 -0.234375 C 1.765625 -0.535156 1.34375 -0.953125 1.03125 -1.484375 C 0.726562 -2.023438 0.578125 -2.632812 0.578125 -3.3125 C 0.578125 -4.039062 0.726562 -4.695312 1.03125 -5.28125 C 1.332031 -5.875 1.75 -6.335938 2.28125 -6.671875 C 2.820312 -7.015625 3.414062 -7.1875 4.0625 -7.1875 C 4.707031 -7.1875 5.296875 -7.03125 5.828125 -6.71875 C 6.367188 -6.40625 6.796875 -5.976562 7.109375 -5.4375 C 7.421875 -4.90625 7.578125 -4.304688 7.578125 -3.640625 C 7.578125 -2.941406 7.421875 -2.296875 7.109375 -1.703125 C 6.796875 -1.109375 6.375 -0.640625 5.84375 -0.296875 C 5.3125 0.046875 4.71875 0.21875 4.0625 0.21875 Z M 4.171875 -0.328125 C 4.847656 -0.328125 5.347656 -0.601562 5.671875 -1.15625 C 5.992188 -1.71875 6.15625 -2.414062 6.15625 -3.25 C 6.15625 -4.1875 5.976562 -4.988281 5.625 -5.65625 C 5.28125 -6.320312 4.757812 -6.65625 4.0625 -6.65625 C 3.375 -6.65625 2.851562 -6.367188 2.5 -5.796875 C 2.15625 -5.234375 1.984375 -4.539062 1.984375 -3.71875 C 1.984375 -3.125 2.066406 -2.566406 2.234375 -2.046875 C 2.398438 -1.535156 2.644531 -1.117188 2.96875 -0.796875 C 3.300781 -0.484375 3.703125 -0.328125 4.171875 -0.328125 Z M 4.171875 -0.328125 "/></g></g></g><g fill="#1c2120" fill-opacity="1"><g transform="translate(275.289546, 95.673231)"><g><path d="M 0.609375 -0.421875 C 0.878906 -0.421875 1.070312 -0.488281 1.1875 -0.625 C 1.300781 -0.757812 1.367188 -0.925781 1.390625 -1.125 C 1.410156 -1.320312 1.425781 -1.648438 1.4375 -2.109375 L 1.453125 -5.296875 C 1.453125 -5.679688 1.46875 -5.976562 1.5 -6.1875 L 0.515625 -6.140625 L 0.515625 -6.71875 C 1.066406 -6.71875 1.441406 -6.75 1.640625 -6.8125 C 1.847656 -6.875 2.019531 -6.96875 2.15625 -7.09375 L 2.5625 -7.09375 C 2.582031 -6.914062 2.601562 -6.632812 2.625 -6.25 C 2.9375 -6.53125 3.289062 -6.753906 3.6875 -6.921875 C 4.09375 -7.097656 4.492188 -7.1875 4.890625 -7.1875 C 5.691406 -7.1875 6.28125 -6.929688 6.65625 -6.421875 C 7.03125 -5.921875 7.21875 -5.132812 7.21875 -4.0625 L 7.21875 -1.46875 C 7.21875 -1.050781 7.195312 -0.738281 7.15625 -0.53125 L 8.03125 -0.578125 L 8.03125 0 L 5.1875 0 L 5.1875 -0.421875 C 5.457031 -0.421875 5.648438 -0.488281 5.765625 -0.625 C 5.878906 -0.757812 5.945312 -0.929688 5.96875 -1.140625 C 6 -1.347656 6.015625 -1.671875 6.015625 -2.109375 L 6.015625 -4.0625 C 6.003906 -4.863281 5.875 -5.460938 5.625 -5.859375 C 5.375 -6.265625 4.976562 -6.46875 4.4375 -6.46875 C 4.101562 -6.46875 3.769531 -6.382812 3.4375 -6.21875 C 3.113281 -6.050781 2.84375 -5.832031 2.625 -5.5625 C 2.632812 -5.46875 2.640625 -5.289062 2.640625 -5.03125 L 2.625 -1.46875 C 2.625 -1.050781 2.609375 -0.738281 2.578125 -0.53125 L 3.453125 -0.578125 L 3.453125 0 L 0.609375 0 Z M 0.609375 -0.421875 "/></g></g></g><path stroke-linecap="butt" transform="matrix(0.746681, 0, 0, 0.746681, 56.813311, 90.015523)" fill="none" stroke-linejoin="miter" d="M -0.00108645 0.99935 L 34.835351 0.99935 " stroke="#000000" stroke-width="2" stroke-opacity="1" stroke-miterlimit="4"/><path stroke-linecap="butt" transform="matrix(0.746681, 0, 0, 0.746681, 292.497422, 90.762204)" fill="none" stroke-linejoin="miter" d="M -0.00177926 0.998563 L 34.834658 0.998563 " stroke="#000000" stroke-width="2" stroke-opacity="1" stroke-miterlimit="4"/></svg>